<svg xmlns="http://www.w3.org/2000/svg" width="256" height="256" viewBox="0 0 24 24" fill="white">
  <circle cx="12" cy="12" r="10" fill="#0d1117"/>
  <path fill="white" d="M12 2a10 10 0 0 0-3 19.5c.5.1.7-.2.7-.5v-1.8c-2.8.6-3.4-1.3-3.4-1.3-.5-1.1-1.2-1.4-1.2-1.4-1-.7.1-.7.1-.7 1.1.1 1.7 1.2 1.7 1.2 1 .1 1.6-.8 1.6-.8.2-.7.5-1 .8-1.2-2.2-.2-4.5-1.1-4.5-5 0-1.1.4-2 1.1-2.7-.1-.3-.5-1.3.1-2.7 0 0 .9-.3 2.8 1.1a9.3 9.3 0 0 1 5 0c1.9-1.4 2.8-1.1 2.8-1.1.6 1.4.2 2.4.1 2.7.7.7 1.1 1.6 1.1 2.7 0 3.9-2.3 4.8-4.5 5 .4.3.8 1 .8 2v3c0 .3.2.6.7.5A10 10 0 0 0 12 2z"/>
</svg>
